<mxfile host="app.diagrams.net" modified="2023-10-12T18:58:25.202Z" agent="Mozilla/5.0 (Windows NT 10.0; Win64; x64) AppleWebKit/537.36 (KHTML, like Gecko) Chrome/116.0.0.0 Safari/537.36 OPR/102.0.0.0" etag="r1yM4-tDUEvSO7tPi3At" version="22.0.4" type="github">
  <diagram name="Page-1" id="lBZpwu1JZyiGF5Htnz3n">
    <mxGraphModel dx="4807" dy="2470" grid="1" gridSize="10" guides="1" tooltips="1" connect="1" arrows="1" fold="1" page="1" pageScale="1" pageWidth="827" pageHeight="1169" math="0" shadow="0">
      <root>
        <mxCell id="0" />
        <mxCell id="1" parent="0" />
        <mxCell id="ip1-ym1mH7IvHa7WmzE2-6" style="edgeStyle=orthogonalEdgeStyle;rounded=0;orthogonalLoop=1;jettySize=auto;html=1;entryX=0;entryY=0.5;entryDx=0;entryDy=0;fontFamily=Times New Roman;" edge="1" parent="1" source="ip1-ym1mH7IvHa7WmzE2-1" target="ip1-ym1mH7IvHa7WmzE2-3">
          <mxGeometry relative="1" as="geometry">
            <Array as="points">
              <mxPoint x="180" y="210" />
            </Array>
          </mxGeometry>
        </mxCell>
        <mxCell id="ip1-ym1mH7IvHa7WmzE2-18" value="username and password" style="edgeLabel;html=1;align=center;verticalAlign=middle;resizable=0;points=[];fontFamily=Times New Roman;" vertex="1" connectable="0" parent="ip1-ym1mH7IvHa7WmzE2-6">
          <mxGeometry x="0.2878" y="-1" relative="1" as="geometry">
            <mxPoint x="14" y="-11" as="offset" />
          </mxGeometry>
        </mxCell>
        <mxCell id="ip1-ym1mH7IvHa7WmzE2-22" style="edgeStyle=orthogonalEdgeStyle;rounded=0;orthogonalLoop=1;jettySize=auto;html=1;fontFamily=Times New Roman;" edge="1" parent="1" source="ip1-ym1mH7IvHa7WmzE2-1" target="ip1-ym1mH7IvHa7WmzE2-4">
          <mxGeometry relative="1" as="geometry">
            <Array as="points">
              <mxPoint x="270" y="330" />
              <mxPoint x="270" y="330" />
            </Array>
          </mxGeometry>
        </mxCell>
        <mxCell id="ip1-ym1mH7IvHa7WmzE2-1" value="Admin" style="rounded=0;whiteSpace=wrap;html=1;fontFamily=Times New Roman;" vertex="1" parent="1">
          <mxGeometry x="120" y="320" width="120" height="40" as="geometry" />
        </mxCell>
        <mxCell id="ip1-ym1mH7IvHa7WmzE2-8" style="edgeStyle=orthogonalEdgeStyle;rounded=0;orthogonalLoop=1;jettySize=auto;html=1;entryX=1;entryY=0.5;entryDx=0;entryDy=0;fontFamily=Times New Roman;" edge="1" parent="1" source="ip1-ym1mH7IvHa7WmzE2-2" target="ip1-ym1mH7IvHa7WmzE2-3">
          <mxGeometry relative="1" as="geometry">
            <Array as="points">
              <mxPoint x="650" y="210" />
            </Array>
          </mxGeometry>
        </mxCell>
        <mxCell id="ip1-ym1mH7IvHa7WmzE2-24" style="edgeStyle=orthogonalEdgeStyle;rounded=0;orthogonalLoop=1;jettySize=auto;html=1;fontFamily=Times New Roman;" edge="1" parent="1" source="ip1-ym1mH7IvHa7WmzE2-2" target="ip1-ym1mH7IvHa7WmzE2-4">
          <mxGeometry relative="1" as="geometry">
            <Array as="points">
              <mxPoint x="560" y="330" />
              <mxPoint x="560" y="330" />
            </Array>
          </mxGeometry>
        </mxCell>
        <mxCell id="ip1-ym1mH7IvHa7WmzE2-2" value="User" style="rounded=0;whiteSpace=wrap;html=1;fontFamily=Times New Roman;" vertex="1" parent="1">
          <mxGeometry x="590" y="320" width="120" height="40" as="geometry" />
        </mxCell>
        <mxCell id="ip1-ym1mH7IvHa7WmzE2-16" style="edgeStyle=orthogonalEdgeStyle;rounded=0;orthogonalLoop=1;jettySize=auto;html=1;fontFamily=Times New Roman;" edge="1" parent="1" target="ip1-ym1mH7IvHa7WmzE2-3">
          <mxGeometry relative="1" as="geometry">
            <mxPoint x="420" y="80" as="sourcePoint" />
            <Array as="points">
              <mxPoint x="420" y="150" />
              <mxPoint x="420" y="150" />
            </Array>
          </mxGeometry>
        </mxCell>
        <mxCell id="ip1-ym1mH7IvHa7WmzE2-3" value="login.php" style="ellipse;whiteSpace=wrap;html=1;aspect=fixed;fontFamily=Times New Roman;" vertex="1" parent="1">
          <mxGeometry x="374" y="170" width="80" height="80" as="geometry" />
        </mxCell>
        <mxCell id="ip1-ym1mH7IvHa7WmzE2-40" style="edgeStyle=orthogonalEdgeStyle;rounded=0;orthogonalLoop=1;jettySize=auto;html=1;fontFamily=Times New Roman;" edge="1" parent="1" source="ip1-ym1mH7IvHa7WmzE2-4">
          <mxGeometry relative="1" as="geometry">
            <mxPoint x="210" y="490" as="targetPoint" />
            <Array as="points">
              <mxPoint x="400" y="400" />
              <mxPoint x="190" y="400" />
              <mxPoint x="190" y="490" />
              <mxPoint x="210" y="490" />
            </Array>
          </mxGeometry>
        </mxCell>
        <mxCell id="ip1-ym1mH7IvHa7WmzE2-41" style="edgeStyle=orthogonalEdgeStyle;rounded=0;orthogonalLoop=1;jettySize=auto;html=1;fontFamily=Times New Roman;" edge="1" parent="1" source="ip1-ym1mH7IvHa7WmzE2-4">
          <mxGeometry relative="1" as="geometry">
            <mxPoint x="630" y="490" as="targetPoint" />
            <Array as="points">
              <mxPoint x="440" y="400" />
              <mxPoint x="650" y="400" />
              <mxPoint x="650" y="490" />
              <mxPoint x="630" y="490" />
            </Array>
          </mxGeometry>
        </mxCell>
        <mxCell id="ip1-ym1mH7IvHa7WmzE2-42" style="edgeStyle=orthogonalEdgeStyle;rounded=0;orthogonalLoop=1;jettySize=auto;html=1;fontFamily=Times New Roman;" edge="1" parent="1" source="ip1-ym1mH7IvHa7WmzE2-4">
          <mxGeometry relative="1" as="geometry">
            <mxPoint x="470" y="500" as="targetPoint" />
            <Array as="points">
              <mxPoint x="430" y="420" />
              <mxPoint x="491" y="420" />
              <mxPoint x="491" y="500" />
            </Array>
          </mxGeometry>
        </mxCell>
        <mxCell id="ip1-ym1mH7IvHa7WmzE2-43" style="edgeStyle=orthogonalEdgeStyle;rounded=0;orthogonalLoop=1;jettySize=auto;html=1;fontFamily=Times New Roman;" edge="1" parent="1" target="ip1-ym1mH7IvHa7WmzE2-4">
          <mxGeometry relative="1" as="geometry">
            <mxPoint x="370" y="500" as="sourcePoint" />
            <Array as="points">
              <mxPoint x="350" y="420" />
              <mxPoint x="414" y="420" />
            </Array>
          </mxGeometry>
        </mxCell>
        <mxCell id="ip1-ym1mH7IvHa7WmzE2-4" value="index.php" style="ellipse;whiteSpace=wrap;html=1;aspect=fixed;fontFamily=Times New Roman;" vertex="1" parent="1">
          <mxGeometry x="374" y="300" width="80" height="80" as="geometry" />
        </mxCell>
        <mxCell id="ip1-ym1mH7IvHa7WmzE2-7" style="edgeStyle=orthogonalEdgeStyle;rounded=0;orthogonalLoop=1;jettySize=auto;html=1;fontFamily=Times New Roman;" edge="1" parent="1" target="ip1-ym1mH7IvHa7WmzE2-3">
          <mxGeometry relative="1" as="geometry">
            <mxPoint x="200" y="320" as="sourcePoint" />
            <mxPoint x="394" y="210" as="targetPoint" />
            <Array as="points">
              <mxPoint x="200" y="230" />
            </Array>
          </mxGeometry>
        </mxCell>
        <mxCell id="ip1-ym1mH7IvHa7WmzE2-9" style="edgeStyle=orthogonalEdgeStyle;rounded=0;orthogonalLoop=1;jettySize=auto;html=1;fontFamily=Times New Roman;" edge="1" parent="1" source="ip1-ym1mH7IvHa7WmzE2-2" target="ip1-ym1mH7IvHa7WmzE2-3">
          <mxGeometry relative="1" as="geometry">
            <mxPoint x="640" y="310" as="sourcePoint" />
            <mxPoint x="464" y="220" as="targetPoint" />
            <Array as="points">
              <mxPoint x="630" y="230" />
            </Array>
          </mxGeometry>
        </mxCell>
        <mxCell id="ip1-ym1mH7IvHa7WmzE2-12" value="" style="endArrow=none;html=1;rounded=0;fontFamily=Times New Roman;" edge="1" parent="1">
          <mxGeometry width="50" height="50" relative="1" as="geometry">
            <mxPoint x="354" y="40" as="sourcePoint" />
            <mxPoint x="474" y="40" as="targetPoint" />
          </mxGeometry>
        </mxCell>
        <mxCell id="ip1-ym1mH7IvHa7WmzE2-14" value="users" style="edgeLabel;html=1;align=center;verticalAlign=middle;resizable=0;points=[];fontFamily=Times New Roman;" vertex="1" connectable="0" parent="ip1-ym1mH7IvHa7WmzE2-12">
          <mxGeometry x="-0.1269" y="-6" relative="1" as="geometry">
            <mxPoint x="7" y="14" as="offset" />
          </mxGeometry>
        </mxCell>
        <mxCell id="ip1-ym1mH7IvHa7WmzE2-13" value="" style="endArrow=none;html=1;rounded=0;fontFamily=Times New Roman;" edge="1" parent="1">
          <mxGeometry width="50" height="50" relative="1" as="geometry">
            <mxPoint x="354" y="80" as="sourcePoint" />
            <mxPoint x="474" y="80" as="targetPoint" />
          </mxGeometry>
        </mxCell>
        <mxCell id="ip1-ym1mH7IvHa7WmzE2-15" value="mysql" style="edgeLabel;html=1;align=center;verticalAlign=middle;resizable=0;points=[];fontFamily=Times New Roman;" vertex="1" connectable="0" parent="1">
          <mxGeometry x="423.121212121212" y="70" as="geometry">
            <mxPoint x="-10" y="-39" as="offset" />
          </mxGeometry>
        </mxCell>
        <mxCell id="ip1-ym1mH7IvHa7WmzE2-17" style="edgeStyle=orthogonalEdgeStyle;rounded=0;orthogonalLoop=1;jettySize=auto;html=1;fontFamily=Times New Roman;" edge="1" parent="1" source="ip1-ym1mH7IvHa7WmzE2-3">
          <mxGeometry relative="1" as="geometry">
            <mxPoint x="410" y="80" as="targetPoint" />
            <mxPoint x="410" y="170" as="sourcePoint" />
            <Array as="points">
              <mxPoint x="410" y="150" />
              <mxPoint x="410" y="150" />
            </Array>
          </mxGeometry>
        </mxCell>
        <mxCell id="ip1-ym1mH7IvHa7WmzE2-19" value="userdata, id, password" style="edgeLabel;html=1;align=center;verticalAlign=middle;resizable=0;points=[];fontFamily=Times New Roman;" vertex="1" connectable="0" parent="1">
          <mxGeometry x="279.9999999999998" y="239.99999999999977" as="geometry" />
        </mxCell>
        <mxCell id="ip1-ym1mH7IvHa7WmzE2-20" value="username and password" style="edgeLabel;html=1;align=center;verticalAlign=middle;resizable=0;points=[];fontFamily=Times New Roman;" vertex="1" connectable="0" parent="1">
          <mxGeometry x="549.9950050517282" y="200.0293365347717" as="geometry" />
        </mxCell>
        <mxCell id="ip1-ym1mH7IvHa7WmzE2-21" value="userdata, id, password" style="edgeLabel;html=1;align=center;verticalAlign=middle;resizable=0;points=[];fontFamily=Times New Roman;" vertex="1" connectable="0" parent="1">
          <mxGeometry x="550.0999999999998" y="239.99999999999977" as="geometry" />
        </mxCell>
        <mxCell id="ip1-ym1mH7IvHa7WmzE2-23" style="edgeStyle=orthogonalEdgeStyle;rounded=0;orthogonalLoop=1;jettySize=auto;html=1;entryX=0;entryY=0.5;entryDx=0;entryDy=0;fontFamily=Times New Roman;" edge="1" parent="1">
          <mxGeometry relative="1" as="geometry">
            <mxPoint x="374" y="350" as="sourcePoint" />
            <mxPoint x="240" y="350" as="targetPoint" />
          </mxGeometry>
        </mxCell>
        <mxCell id="ip1-ym1mH7IvHa7WmzE2-25" style="edgeStyle=orthogonalEdgeStyle;rounded=0;orthogonalLoop=1;jettySize=auto;html=1;fontFamily=Times New Roman;" edge="1" parent="1">
          <mxGeometry relative="1" as="geometry">
            <mxPoint x="453" y="350" as="sourcePoint" />
            <mxPoint x="590" y="350" as="targetPoint" />
            <Array as="points">
              <mxPoint x="560" y="350" />
              <mxPoint x="560" y="350" />
            </Array>
          </mxGeometry>
        </mxCell>
        <mxCell id="ip1-ym1mH7IvHa7WmzE2-27" value="View&amp;nbsp; posts" style="edgeLabel;html=1;align=center;verticalAlign=middle;resizable=0;points=[];fontFamily=Times New Roman;" vertex="1" connectable="0" parent="1">
          <mxGeometry x="519.9950050517282" y="319.9993365347717" as="geometry" />
        </mxCell>
        <mxCell id="ip1-ym1mH7IvHa7WmzE2-28" value="get posts list" style="edgeLabel;html=1;align=center;verticalAlign=middle;resizable=0;points=[];fontFamily=Times New Roman;" vertex="1" connectable="0" parent="1">
          <mxGeometry x="512.9950050517282" y="362.9993365347717" as="geometry">
            <mxPoint x="7" y="-3" as="offset" />
          </mxGeometry>
        </mxCell>
        <mxCell id="ip1-ym1mH7IvHa7WmzE2-29" value="edit posts" style="edgeLabel;html=1;align=center;verticalAlign=middle;resizable=0;points=[];fontFamily=Times New Roman;" vertex="1" connectable="0" parent="1">
          <mxGeometry x="306.9950050517282" y="319.9993365347717" as="geometry" />
        </mxCell>
        <mxCell id="ip1-ym1mH7IvHa7WmzE2-30" value="update posts" style="edgeLabel;html=1;align=center;verticalAlign=middle;resizable=0;points=[];fontFamily=Times New Roman;" vertex="1" connectable="0" parent="1">
          <mxGeometry x="299.9950050517282" y="362.9993365347717" as="geometry">
            <mxPoint x="7" y="-3" as="offset" />
          </mxGeometry>
        </mxCell>
        <mxCell id="ip1-ym1mH7IvHa7WmzE2-31" value="" style="endArrow=none;html=1;rounded=0;fontFamily=Times New Roman;" edge="1" parent="1">
          <mxGeometry width="50" height="50" relative="1" as="geometry">
            <mxPoint x="203.12" y="480" as="sourcePoint" />
            <mxPoint x="323.12" y="480" as="targetPoint" />
          </mxGeometry>
        </mxCell>
        <mxCell id="ip1-ym1mH7IvHa7WmzE2-32" value="headings" style="edgeLabel;html=1;align=center;verticalAlign=middle;resizable=0;points=[];fontFamily=Times New Roman;" vertex="1" connectable="0" parent="ip1-ym1mH7IvHa7WmzE2-31">
          <mxGeometry x="-0.1269" y="-6" relative="1" as="geometry">
            <mxPoint x="7" y="14" as="offset" />
          </mxGeometry>
        </mxCell>
        <mxCell id="ip1-ym1mH7IvHa7WmzE2-33" value="" style="endArrow=none;html=1;rounded=0;fontFamily=Times New Roman;" edge="1" parent="1">
          <mxGeometry width="50" height="50" relative="1" as="geometry">
            <mxPoint x="203.12" y="520" as="sourcePoint" />
            <mxPoint x="323.12" y="520" as="targetPoint" />
          </mxGeometry>
        </mxCell>
        <mxCell id="ip1-ym1mH7IvHa7WmzE2-34" value="" style="endArrow=none;html=1;rounded=0;fontFamily=Times New Roman;" edge="1" parent="1">
          <mxGeometry width="50" height="50" relative="1" as="geometry">
            <mxPoint x="363.12" y="480" as="sourcePoint" />
            <mxPoint x="483.12" y="480" as="targetPoint" />
          </mxGeometry>
        </mxCell>
        <mxCell id="ip1-ym1mH7IvHa7WmzE2-35" value="Subheadings" style="edgeLabel;html=1;align=center;verticalAlign=middle;resizable=0;points=[];fontFamily=Times New Roman;" vertex="1" connectable="0" parent="ip1-ym1mH7IvHa7WmzE2-34">
          <mxGeometry x="-0.1269" y="-6" relative="1" as="geometry">
            <mxPoint x="7" y="14" as="offset" />
          </mxGeometry>
        </mxCell>
        <mxCell id="ip1-ym1mH7IvHa7WmzE2-36" value="" style="endArrow=none;html=1;rounded=0;fontFamily=Times New Roman;" edge="1" parent="1">
          <mxGeometry width="50" height="50" relative="1" as="geometry">
            <mxPoint x="363.12" y="520" as="sourcePoint" />
            <mxPoint x="483.12" y="520" as="targetPoint" />
          </mxGeometry>
        </mxCell>
        <mxCell id="ip1-ym1mH7IvHa7WmzE2-37" value="" style="endArrow=none;html=1;rounded=0;fontFamily=Times New Roman;" edge="1" parent="1">
          <mxGeometry width="50" height="50" relative="1" as="geometry">
            <mxPoint x="523.12" y="480" as="sourcePoint" />
            <mxPoint x="643.12" y="480" as="targetPoint" />
          </mxGeometry>
        </mxCell>
        <mxCell id="ip1-ym1mH7IvHa7WmzE2-38" value="posts" style="edgeLabel;html=1;align=center;verticalAlign=middle;resizable=0;points=[];fontFamily=Times New Roman;" vertex="1" connectable="0" parent="ip1-ym1mH7IvHa7WmzE2-37">
          <mxGeometry x="-0.1269" y="-6" relative="1" as="geometry">
            <mxPoint x="7" y="14" as="offset" />
          </mxGeometry>
        </mxCell>
        <mxCell id="ip1-ym1mH7IvHa7WmzE2-39" value="" style="endArrow=none;html=1;rounded=0;fontFamily=Times New Roman;" edge="1" parent="1">
          <mxGeometry width="50" height="50" relative="1" as="geometry">
            <mxPoint x="523.12" y="520" as="sourcePoint" />
            <mxPoint x="643.12" y="520" as="targetPoint" />
          </mxGeometry>
        </mxCell>
        <mxCell id="ip1-ym1mH7IvHa7WmzE2-44" style="edgeStyle=orthogonalEdgeStyle;rounded=0;orthogonalLoop=1;jettySize=auto;html=1;entryX=0.11;entryY=0.799;entryDx=0;entryDy=0;entryPerimeter=0;fontFamily=Times New Roman;" edge="1" parent="1" target="ip1-ym1mH7IvHa7WmzE2-4">
          <mxGeometry relative="1" as="geometry">
            <mxPoint x="385" y="363" as="targetPoint" />
            <mxPoint x="210" y="510" as="sourcePoint" />
            <Array as="points">
              <mxPoint x="175" y="510" />
              <mxPoint x="175" y="386" />
              <mxPoint x="383" y="386" />
            </Array>
          </mxGeometry>
        </mxCell>
        <mxCell id="ip1-ym1mH7IvHa7WmzE2-45" style="edgeStyle=orthogonalEdgeStyle;rounded=0;orthogonalLoop=1;jettySize=auto;html=1;exitX=0.942;exitY=0.703;exitDx=0;exitDy=0;exitPerimeter=0;entryX=0.949;entryY=0.676;entryDx=0;entryDy=0;entryPerimeter=0;fontFamily=Times New Roman;" edge="1" parent="1" target="ip1-ym1mH7IvHa7WmzE2-4">
          <mxGeometry relative="1" as="geometry">
            <mxPoint x="454" y="363" as="targetPoint" />
            <mxPoint x="630" y="510" as="sourcePoint" />
            <Array as="points">
              <mxPoint x="664" y="510" />
              <mxPoint x="664" y="390" />
              <mxPoint x="450" y="390" />
              <mxPoint x="450" y="370" />
              <mxPoint x="450" y="370" />
            </Array>
          </mxGeometry>
        </mxCell>
      </root>
    </mxGraphModel>
  </diagram>
</mxfile>
